<svg id="Слой_1" xmlns="http://www.w3.org/2000/svg" viewBox="-274 401.8 38.6 37.7"><style>.st0{opacity:0.1;fill:#76B828;enable-background:new ;} .st1{opacity:0.35;fill:#76B828;enable-background:new ;} .st2{opacity:0.75;fill:#76B828;enable-background:new ;} .st3{fill:#76B828;}</style><path class="st0" d="M-254.7 404c4.6 0 8.8 1.9 11.9 4.9l1.5-1.5c-3.4-3.5-8.2-5.6-13.4-5.6-5.3 0-10 2.1-13.5 5.5l1.6 1.5c3-3 7.2-4.8 11.9-4.8zM-271.8 421.1c0-1.2.1-2.4.4-3.5l-2.1-.4c-.4 1.2-.5 2.5-.5 3.9 0 8.7 5.8 16 13.7 18.4l.6-2.1c-7.1-2.1-12.1-8.6-12.1-16.3zM-238 417.6c.2 1.1.4 2.3.4 3.5 0 7.6-5 14-11.8 16.3l.6 2.1c7.7-2.5 13.4-9.8 13.4-18.3 0-1.3-.1-2.6-.4-3.9l-2.2.3z"/><path class="st1" d="M-268.3 421.1c0-1 .1-2 .3-2.9l-2.6-.4c-.2 1.1-.4 2.2-.4 3.3 0 7.3 4.8 13.4 11.4 15.4l.8-2.5c-5.5-1.7-9.5-6.8-9.5-12.9zM-238.6 421.1c0-1.1-.1-2.3-.4-3.3l-2.6.4c.2.9.3 1.9.3 2.9 0 6-3.9 11-9.3 12.8l.8 2.5c6.5-2.1 11.2-8.2 11.2-15.3zM-245.4 411.4l1.9-1.8c-2.9-2.8-6.9-4.6-11.2-4.6-4.4 0-8.3 1.7-11.2 4.6l1.9 1.8c2.4-2.3 5.7-3.8 9.3-3.8s6.9 1.4 9.3 3.8z"/><path class="st2" d="M-242.3 421.1c0-.9-.1-1.8-.3-2.7l-2.3.4c.2.7.3 1.5.3 2.3 0 4.5-2.9 8.3-6.9 9.6l.7 2.3c4.9-1.7 8.5-6.4 8.5-11.9zM-264.8 421.1c0-.8.1-1.6.3-2.3l-2.3-.4c-.2.9-.3 1.8-.3 2.7 0 5.6 3.8 10.4 8.9 11.9l.7-2.3c-4.3-1.2-7.3-5.1-7.3-9.6zM-247.8 413.7l1.7-1.7c-2.2-2.1-5.3-3.5-8.6-3.5s-6.4 1.3-8.6 3.5l1.7 1.7c1.8-1.7 4.2-2.8 6.9-2.8 2.7.1 5.1 1.1 6.9 2.8z"/><path class="st3" d="M-262.593 420.643l7.778-7.78 7.778 7.78-7.778 7.778z"/></svg>