<svg id="Слой_1" xmlns="http://www.w3.org/2000/svg" viewBox="0 0 125.2 80"><style>.st0{fill:#6E6E6E;} .st1{fill:#76B828;}</style><path class="st0" d="M0 5.8h7.2v21.5h14.2V5.8h7.2v28.6H0zM94.4 20.1l10.1 10.1 10.1-10.1L104.5 10 94.4 20.1zm-10.1 0L104.5-.1l20.2 20.2-20.2 20.2-20.2-20.2zM50.7 35.1l-15-15L55.7 0l5 5-15 15.1 15 15-20 20.1-5-5.1z"/><path class="st0" d="M75.1 35.2L60 20.1 80 0l5.1 5.1-15.1 15 15 15-20 20.1-5-5.1zM123.6 53.4V48h1.1v7.2h-1l-2.8-3.8-1.1-1.6h-.1v5.4h-1.1V48h1l2.9 3.9 1.1 1.5zm-7.2.9c-.2.2-.3.3-.6.4-.2.1-.4.2-.7.3-.2.1-.5.1-.7.2-.2 0-.5.1-.7.1-.4 0-.8-.1-1.1-.2-.4-.1-.7-.3-.9-.5-.3-.2-.5-.5-.6-.7-.2-.3-.2-.6-.2-1v-2.6c0-.4.1-.7.2-1 .2-.3.4-.5.7-.7s.6-.4 1-.5.8-.2 1.2-.2.8.1 1.2.2.7.3 1 .5l-.5.8c-.2-.2-.5-.3-.8-.4s-.6-.1-.9-.1c-.2 0-.5 0-.7.1l-.6.3c-.2.1-.3.3-.4.5-.1.2-.2.5-.2.8v2.3c0 .3.1.5.2.8.1.2.2.4.4.5l.6.3c.2.1.5.1.7.1s.4 0 .7-.1c.3 0 .6-.2.8-.4v-1.7h-1.3v-.9h2.3l-.1 2.8zm-9.1.9V48h1.1v7.2h-1.1zm-2.3-2c0 .3-.1.6-.2.9-.1.3-.3.5-.6.7s-.5.3-.9.4c-.3.1-.7.1-1.2.1s-1.1-.1-1.5-.2c-.5-.1-.9-.4-1.4-.7l.6-.7c.4.2.7.4 1.1.5.4.1.8.2 1.2.2.5 0 1-.1 1.3-.3.3-.2.5-.5.5-.9 0-.2-.1-.4-.2-.6-.1-.2-.3-.3-.5-.4s-.4-.2-.6-.2c-.2 0-.4-.1-.7-.1-.3-.1-.6-.1-.9-.2-.3-.1-.5-.2-.8-.4-.2-.2-.4-.3-.5-.6-.1-.2-.2-.5-.2-.8s.1-.6.2-.8c.1-.3.3-.5.5-.7s.5-.3.8-.4.7-.2 1.1-.2c.5 0 .9 0 1.4.1.4.1.9.2 1.3.5l-.5.8c-.3-.2-.7-.3-1.1-.4-.4-.1-.7-.1-1.1-.1-.2 0-.4 0-.6.1-.2 0-.3.1-.5.2-.1.1-.2.2-.3.4-.1.2-.1.3-.1.5s.1.4.2.5c.1.1.3.2.4.3.2.1.4.1.6.2.2 0 .4.1.6.1.3.1.7.1 1 .2s.6.2.8.4l.6.6c.1.3.2.6.2 1zm-12.7 2V48h5.3v.9h-4.2v2.3H97v.9h-3.6v2.3h4.2v.9h-5.3v-.1zm-3.4-4.7c0-.3-.1-.6-.2-.8-.1-.2-.3-.4-.4-.5l-.6-.3c-.2-.1-.5-.1-.7-.1h-1.7v5.5H87c.2 0 .4 0 .7-.1l.6-.3c.2-.1.3-.3.4-.5s.2-.5.2-.8v-2.1zm1.1 2.3c0 .3-.1.7-.2 1s-.3.5-.6.7c-.2.2-.5.4-.9.5-.3.1-.7.2-1.1.2h-3V48h3c.4 0 .7.1 1.1.2.3.1.6.3.9.5.2.2.4.5.6.7.1.3.2.6.2 1v2.4z"/><path class="st1" d="M119.7 80l1.2-3-.7-.5-2.1-6.5h1.5l.9 3.1.9 2.8 1.1-2.8 1.2-3.1h1.5l-4 10h-1.5zm-4.8-10.1c.5 0 .9.1 1.4.2s.9.4 1.3.7l-.8.9c-.3-.3-.7-.5-1-.6s-.6-.1-.8-.1-.4 0-.6.1l-.6.3c-.2.1-.3.3-.4.5-.1.2-.2.5-.2.8v1.6c0 .3.1.6.2.8.1.2.2.4.4.5l.6.3c.2.1.4.1.7.1.2 0 .5 0 .8-.1s.6-.2.9-.5l.8.9c-.4.3-.8.6-1.2.7s-.9.2-1.4.2-.9-.1-1.3-.2-.7-.3-1-.5-.5-.5-.6-.8c-.2-.3-.2-.7-.2-1v-2.2c0-.4.1-.8.3-1.1.2-.3.4-.6.7-.8.3-.2.6-.4 1-.5.2-.1.6-.2 1-.2zm-7.1 0c.8 0 1.4.2 1.8.7.4.4.6 1.1.6 1.9v4.7h-1.4v-4.5c0-.6-.1-.9-.4-1.2-.3-.2-.6-.3-1-.3-.3 0-.7.1-1.1.2-.4.1-.8.3-1.2.6v5.2h-1.4v-7.1h1.2l.2.8c.3-.2.6-.3.9-.5.3-.1.5-.2.7-.3s.4-.1.6-.1c.2-.1.3-.1.5-.1zm-6.8 2.8c0-.3 0-.6-.1-.8-.1-.2-.2-.4-.4-.5l-.6-.3c-.2-.1-.4-.1-.7-.1-.2 0-.5 0-.7.1l-.6.3c-.2.1-.3.3-.4.5-.1.2-.1.4-.1.7v.3h3.6v-.2zM97.4 74v.5c0 .3.1.5.2.7.1.2.3.4.4.5l.6.3c.2.1.5.1.7.1.3 0 .6 0 .9-.1.3-.1.7-.3 1-.6l.9.8c-.4.4-.8.6-1.3.8-.5.1-1 .2-1.5.2-.4 0-.9-.1-1.3-.2s-.8-.3-1.1-.5-.5-.5-.7-.8-.3-.7-.3-1.1v-1.9c0-.4.1-.8.2-1.1.2-.3.4-.6.7-.9.3-.2.6-.4 1-.6.4-.1.8-.2 1.3-.2s.9.1 1.3.2.7.3 1 .5.5.5.6.8.2.7.2 1.1v1.4l-4.8.1zm-4.3-2c-.4-.3-.8-.5-1.2-.6-.4-.2-.8-.2-1.1-.2-.4 0-.8.1-1 .3-.2.2-.4.6-.4 1.2v1.9c0 .5.1.9.4 1.2.3.2.6.3 1 .3.3 0 .7-.1 1.1-.2s.8-.3 1.2-.5V72zm-2.4-2.1c.3 0 .6.1 1 .2s.9.3 1.5.7l.2-.8h1.2v7.6c0 .4-.1.8-.3 1.1-.2.3-.4.6-.7.8-.3.2-.7.4-1.1.5s-.8.2-1.2.2c-.5 0-.9-.1-1.4-.2s-1-.4-1.4-.7l.8-.9c.1.1.3.2.4.3.2.1.3.2.5.2.2.1.4.1.5.1.2 0 .3.1.5.1.3 0 .5 0 .7-.1s.5-.2.6-.3c.2-.1.3-.3.5-.5.1-.2.2-.5.2-.8v-.8c-.5.3-1 .5-1.4.6s-.8.1-1.1.1c-.8 0-1.4-.2-1.9-.7-.5-.4-.7-1.1-.7-1.9v-2.2c0-.8.2-1.4.7-1.9.5-.5 1.1-.7 1.9-.7zm-8.2-.9l-.8 2.3-.9 2.4h3.4l-.9-2.4-.8-2.3zm3.1 8.1l-.9-2.2h-4.3l-.8 2.2h-1.5l3.8-9.9h1.5l3.8 9.9h-1.6zM71.8 72c-.4-.3-.8-.5-1.2-.6-.4-.2-.8-.2-1.1-.2-.4 0-.8.1-1 .3-.2.2-.4.6-.4 1.2v1.9c0 .5.1.9.4 1.2.3.2.6.3 1 .3.3 0 .7-.1 1.1-.2s.8-.3 1.2-.5V72zm-2.5-2.1c.3 0 .6.1 1 .2s.9.3 1.5.7l.2-.8h1.2v7.6c0 .4-.1.8-.3 1.1-.2.3-.4.6-.7.8-.3.2-.7.4-1.1.5s-.8.2-1.2.2c-.5 0-.9-.1-1.4-.2s-1-.4-1.4-.7l.8-.9c.1.1.3.2.4.3.2.1.3.2.5.2.2.1.4.1.5.1.2 0 .3.1.5.1.3 0 .5 0 .7-.1s.5-.2.6-.3c.2-.1.3-.3.5-.5.1-.2.2-.5.2-.8v-.8c-.5.3-1 .5-1.4.6s-.8.1-1.1.1c-.8 0-1.4-.2-1.9-.7-.5-.4-.7-1.1-.7-1.9v-2.2c0-.8.2-1.4.7-1.9.5-.5 1.2-.7 1.9-.7zm-6.5 0c.8 0 1.4.2 1.8.7.4.4.6 1.1.6 1.9v4.7h-1.4v-4.5c0-.6-.1-.9-.4-1.2-.3-.2-.6-.3-1-.3-.3 0-.7.1-1.1.2s-.8.3-1.2.6v5.2h-1.4v-7.1h1.2l.2.8c.3-.2.6-.3.9-.5.3-.1.5-.2.7-.3.2-.1.4-.1.6-.1.2-.1.4-.1.5-.1zm-7.3 7.2V70h1.4v7.1h-1.4zm1.5-9.3c0 .2-.1.4-.3.5-.2.2-.4.2-.6.2s-.4-.1-.6-.2c-.2-.2-.3-.3-.3-.5s.1-.4.3-.5c.2-.1.4-.2.6-.2s.4.1.6.2c.3.1.3.3.3.5zm-3.2 7.3c0 .3-.1.6-.2.9-.2.3-.4.5-.6.7-.3.2-.6.3-1 .4s-.8.1-1.2.1c-.5 0-1.1-.1-1.6-.2s-1-.4-1.6-.7l.7-.9c.4.3.8.5 1.2.6.4.1.9.2 1.3.2.2 0 .4 0 .6-.1.2 0 .4-.1.5-.2.2-.1.3-.2.4-.3.1-.1.1-.3.1-.5 0-.3-.1-.5-.4-.7-.2-.1-.5-.2-.9-.3-.4-.1-.8-.1-1.2-.2-.4-.1-.8-.2-1.1-.3-.3-.1-.6-.3-.8-.6-.2-.2-.3-.6-.3-.9s.1-.6.2-.9.4-.5.6-.7c.3-.2.6-.3.9-.4s.7-.2 1.1-.2c.6 0 1.1.1 1.6.2s.9.3 1.3.6l-.7.9c-.4-.2-.7-.4-1.1-.4-.3-.1-.7-.1-1.1-.1-.5 0-.8.1-1.1.3-.3.2-.4.4-.4.7 0 .2.1.4.3.6.2.1.5.2.9.3.3.1.7.1 1.1.2s.8.2 1.1.3c.3.1.6.3.9.6.4.2.5.5.5 1zm-9.2 2V70H46v7.1h-1.4zm1.5-9.3c0 .2-.1.4-.3.5-.2.2-.4.2-.6.2s-.4-.1-.6-.2c-.2-.2-.3-.3-.3-.5s.1-.4.3-.5c.2-.1.4-.2.6-.2s.4.1.6.2c.2.1.3.3.3.5zm-2.9 9.1c-.3.1-.6.2-1 .2-.3 0-.6.1-.7.1-.8 0-1.4-.2-1.8-.5s-.6-.9-.6-1.7v-3.9H38V70h1.1l.3-1.7h1V70h2.2v1.1h-2.1v3.5c0 .3 0 .5.1.7s.1.3.2.4.2.2.4.2.3.1.5.1h.6s.4-.1.7-.1l.2 1zm-5.8-5.7c-.7.1-1.3.2-1.7.3-.5.2-.8.3-1.1.5v5.1h-1.4V70h1.3l.1 1c.1-.1.3-.3.5-.4s.4-.3.7-.4c.2-.1.5-.2.8-.3.3-.1.5-.1.8-.1v1.4zm-7.2 1.5c0-.3 0-.6-.1-.8-.1-.2-.2-.4-.4-.5l-.6-.3c-.2-.1-.4-.1-.7-.1-.2 0-.5 0-.7.1l-.6.3c-.2.1-.3.3-.4.5-.1.2-.1.4-.1.7v.3h3.6v-.2zM26.6 74v.5c0 .3.1.5.2.7.1.2.3.4.4.5l.6.3c.2.1.5.1.7.1.3 0 .6 0 .9-.1.3-.1.7-.3 1-.6l.9.8c-.4.4-.8.6-1.3.8-.5.1-1 .2-1.5.2-.4 0-.9-.1-1.3-.2s-.8-.3-1.1-.5-.5-.5-.7-.8-.3-.7-.3-1.1v-1.9c0-.4.1-.8.2-1.1.2-.3.4-.6.7-.9.3-.2.6-.4 1-.6.4-.1.8-.2 1.3-.2s.9.1 1.3.2.7.3 1 .5c.3.2.5.5.6.8s.2.7.2 1.1v1.4l-4.8.1zm-5.7 1.4l.9-2.6 1-2.8h1.5l-2.8 7.1h-1.3L17.4 70h1.5l1 2.8 1 2.6zM15 71.5l-1.2-.3c-.4-.1-.7-.1-1-.1-.4 0-.8.1-1.1.3-.3.2-.4.6-.4 1.2v2c0 .5.1.9.4 1.1.3.2.6.3 1 .3.1 0 .3 0 .5-.1.2 0 .4-.1.6-.2l.6-.3.6-.3v-3.6zm.2 5.6l-.2-.7c-.6.3-1.1.5-1.5.7-.4.1-.7.2-1 .2-.4 0-.7-.1-1.1-.2-.3-.1-.6-.3-.8-.5s-.4-.5-.5-.8-.2-.7-.2-1.1v-2.2c0-.4.1-.8.2-1.1.1-.3.3-.6.6-.8.2-.2.5-.4.9-.5.3-.1.7-.2 1.1-.2.3 0 .6 0 1 .1s.8.2 1.4.3v-3.5h1.4v10.3h-1.3zM4.3 69l-.8 2.3-.9 2.4H6l-.9-2.4-.8-2.3zm3.1 8.1l-.9-2.2H2.2l-.8 2.2H-.1l3.8-9.9h1.5L9 77.1H7.4z"/></svg>